<svg xmlns="http://www.w3.org/2000/svg" width="11in" height="8.5in" viewBox="0 0 1100 850">
<rect width="1100" height="850" fill="white"/><g fill="none" stroke="#000" stroke-width="2"><rect x="24" y="24" width="1052" height="802"/><rect x="34" y="34" width="1032" height="782"/></g>
<g font-family="Arial,Helvetica,sans-serif" fill="#000"><text x="55" y="68" font-size="28" font-weight="700">FREEMAN BARN — MEASURED EXISTING CONDITIONS</text><text x="55" y="91" font-size="13">2026 FIELD RECORD • TWINSBURG HISTORICAL SOCIETY • TWINSBURG, OHIO</text><text x="55" y="111" font-size="11">BLACK &amp; WHITE REFERENCE DRAWING • DO NOT SCALE • FIELD RECORD CONTROLS</text></g>
<g fill="none" stroke="#000" stroke-width="2"><path d="M80 335 L300 205 L520 335 V545 H80 Z"/><rect x="230" y="385" width="140" height="160"/><rect x="125" y="415" width="58" height="92"/><rect x="417" y="415" width="58" height="92"/><line x1="230" y1="570" x2="370" y2="570"/><line x1="230" y1="558" x2="230" y2="582"/><line x1="370" y1="558" x2="370" y2="582"/><path d="M237 564 l-7 6 7 6 M363 564 l7 6 -7 6"/><line x1="395" y1="385" x2="395" y2="545"/><line x1="385" y1="385" x2="405" y2="385"/><line x1="385" y1="545" x2="405" y2="545"/><path d="M389 392 l6-7 6 7 M389 538 l6 7 6-7"/></g>
<g font-family="Arial" fill="#000"><text x="80" y="185" font-size="14" font-weight="700">FRONT / EASTERLY-FACING ELEVATION</text><text x="300" y="594" text-anchor="middle" font-size="13" font-weight="700">10'-0&quot; W</text><text x="414" y="468" font-size="13" font-weight="700" transform="rotate(90 414 468)">10'-0&quot; H</text><text x="300" y="625" text-anchor="middle" font-size="11">TWO WINDOWS + ONE CENTERED BARN-DOOR OPENING</text></g>
<g fill="none" stroke="#000" stroke-width="2"><path d="M620 300 L820 185 L1020 300"/><line x1="620" y1="330" x2="1020" y2="330"/><line x1="820" y1="185" x2="820" y2="300" stroke-dasharray="6 5"/></g>
<g font-family="Arial" fill="#000"><text x="620" y="155" font-size="14" font-weight="700">UPPER ROOF / GABLE GEOMETRY</text><text x="705" y="228" font-size="13" font-weight="700" transform="rotate(-30 705 228)">21'-0&quot; SLOPE</text><text x="900" y="228" font-size="13" font-weight="700" transform="rotate(30 900 228)">21'-0&quot; SLOPE</text><text x="835" y="250" font-size="12" font-weight="700">13'-0&quot; GABLE RISE</text><text x="820" y="355" text-anchor="middle" font-size="13" font-weight="700">54'-6&quot; UPPER ROOF LENGTH</text><text x="820" y="379" text-anchor="middle" font-size="11">2'-0&quot; SOFFIT PROJECTION • ALL AROUND</text><text x="820" y="400" text-anchor="middle" font-size="11">CALCULATED UPPER ROOF AREA: 1,144.5 SF / PLANE • 2,289 SF TOTAL</text></g>
<!-- footprint plan: 50'-6 x 40 overall, main barn 30 + full-length rear lean-to 10 -->
<g fill="none" stroke="#000" stroke-width="2"><rect x="620" y="455" width="350" height="150"/><line x1="620" y1="567.5" x2="970" y2="567.5" stroke-width="3"/><line x1="600" y1="455" x2="600" y2="605"/><line x1="590" y1="455" x2="610" y2="455"/><line x1="590" y1="567.5" x2="610" y2="567.5"/><line x1="590" y1="605" x2="610" y2="605"/><line x1="620" y1="625" x2="970" y2="625"/><line x1="620" y1="615" x2="620" y2="635"/><line x1="970" y1="615" x2="970" y2="635"/></g>
<g font-family="Arial" fill="#000"><text x="620" y="440" font-size="14" font-weight="700">FIELD-MEASURED FOOTPRINT</text><text x="795" y="505" text-anchor="middle" font-size="14" font-weight="700">MAIN BARN • 50'-6&quot; × 30'-0&quot;</text><text x="795" y="588" text-anchor="middle" font-size="12" font-weight="700">REAR LEAN-TO • 50'-6&quot; × 10'-0&quot; • FULL LENGTH</text><text x="795" y="650" text-anchor="middle" font-size="13" font-weight="700">50'-6&quot; OVERALL LENGTH</text><text x="575" y="515" text-anchor="middle" font-size="11" font-weight="700" transform="rotate(-90 575 515)">30'-0&quot; MAIN</text><text x="575" y="590" text-anchor="middle" font-size="11" font-weight="700" transform="rotate(-90 575 590)">10'-0&quot; LEAN-TO</text><text x="990" y="530" font-size="12" font-weight="700" transform="rotate(90 990 530)">40'-0&quot; OVERALL WIDTH / DEPTH</text></g>
<g font-family="Arial" fill="#000"><text x="65" y="690" font-size="13" font-weight="700">OPENING SCHEDULE</text><text x="65" y="713" font-size="11">Front barn door ........ 10'-0&quot; W × 10'-0&quot; H</text><text x="65" y="733" font-size="11">Upper gable windows .... 5'-0&quot; W × 5'-7&quot; H</text><text x="65" y="753" font-size="11">South-side windows (3) . 2'-0&quot; × 3'-4&quot;</text><text x="65" y="773" font-size="11">East-side windows (3) .. 3'-0&quot; × 6'-0&quot;</text><text x="390" y="690" font-size="13" font-weight="700">HISTORIC LETTERING</text><text x="390" y="713" font-size="11">CHEW ................... 7'-0&quot; × 1'-5&quot;</text><text x="390" y="733" font-size="11">MAIL POUCH ............. 26'-0&quot; × 4'-4&quot;</text><text x="390" y="753" font-size="11">TOBACCO ................ 12'-3&quot; × 2'-2&quot; *</text><text x="390" y="773" font-size="11">TREAT YOURSELF... ...... 26'-0&quot; × 1'-3&quot;</text><text x="390" y="792" font-size="9">* width calculated from 21 battens × 7&quot;</text></g>
<g fill="none" stroke="#000"><rect x="735" y="675" width="315" height="125"/><line x1="735" y1="718" x2="1050" y2="718"/><line x1="735" y1="758" x2="1050" y2="758"/><line x1="900" y1="758" x2="900" y2="800"/></g><g font-family="Arial" fill="#000"><text x="750" y="694" font-size="14" font-weight="700">FREEMAN BARN</text><text x="750" y="710" font-size="10">MEASURED EXISTING CONDITIONS • 2026</text><text x="750" y="737" font-size="10">DOCUMENTED BY DENNY SMITH • SPRAY GENX LLC</text><text x="750" y="751" font-size="9">FOR TWINSBURG HISTORICAL SOCIETY</text><text x="748" y="776" font-size="9">STATUS</text><text x="748" y="792" font-size="10" font-weight="700">FIELD REFERENCE</text><text x="912" y="776" font-size="9">SHEET</text><text x="912" y="792" font-size="10" font-weight="700">A-01</text></g>
<text x="550" y="821" text-anchor="middle" font-family="Arial" font-size="9">FIELD MEASURED: 50'-6&quot; × 30'-0&quot; MAIN BARN + FULL-LENGTH 50'-6&quot; × 10'-0&quot; REAR LEAN-TO = 50'-6&quot; × 40'-0&quot; OVERALL FOOTPRINT.</text>
</svg>